<svg xmlns="http://www.w3.org/2000/svg" viewBox="0 0 67.28 53.04"><g id="Layer_2" data-name="Layer 2"><g id="Layer_1-2" data-name="Layer 1"><path d="M18.17,52.22q-8.6,0-13.39-3.86T0,37.43Q0,30,5,26t14-4h10.9a1.71,1.71,0,0,0,1.69-2,14.38,14.38,0,0,0-3-7.1q-2.65-3.11-7.87-3.1a12.64,12.64,0,0,0-6.38,1.55,11.78,11.78,0,0,0-3.86,3.64,1.69,1.69,0,0,1-2,.61L3.32,13.77a1.71,1.71,0,0,1-.87-2.49A22.46,22.46,0,0,1,5.7,7.18,18.85,18.85,0,0,1,12,3.07a22.88,22.88,0,0,1,8.7-1.5A22.39,22.39,0,0,1,32.24,4.28a16.34,16.34,0,0,1,6.81,7.87,31.71,31.71,0,0,1,2.23,12.52L41.1,49.36a1.71,1.71,0,0,1-1.71,1.7H34a1.7,1.7,0,0,1-1.7-1.63h0a1.7,1.7,0,0,0-2.86-1.17,13.91,13.91,0,0,1-2.92,2.08A17.55,17.55,0,0,1,18.17,52.22Zm1.08-8.37a13.48,13.48,0,0,0,6.81-1.71,11.81,11.81,0,0,0,4.6-4.7,14.49,14.49,0,0,0,1.62-7V29.06H21.8q-6.77,0-9.51,2A6.7,6.7,0,0,0,9.55,36.8,6.06,6.06,0,0,0,12.1,42,12,12,0,0,0,19.25,43.85Z"/><path d="M51,53a17.1,17.1,0,0,1-5.41-.95,5,5,0,0,1-2.7-6.68l.11-.26a4.4,4.4,0,0,1,5.5-2.6h0a8.18,8.18,0,0,0,2.6.55q6.23,0,6.23-8.73v-29a5.21,5.21,0,0,1,5-5.41h0a5.22,5.22,0,0,1,5,5.41V34.82q0,8.94-4.19,13.58T51,53Z"/></g></g></svg>